<?xml version="1.0" encoding="utf-8"?>
<!-- Generator: Adobe Illustrator 25.1.0, SVG Export Plug-In . SVG Version: 6.00 Build 0)  -->
<svg version="1.1" id="Layer_1" xmlns="http://www.w3.org/2000/svg" xmlns:xlink="http://www.w3.org/1999/xlink" x="0px" y="0px"
	 viewBox="0 0 595.28 841.89" style="enable-background:new 0 0 595.28 841.89;" xml:space="preserve">
<style type="text/css">
	.st0{fill:#0A2342;}
</style>
<g>
	<path class="st0" d="M404.79,549.59c0-9.65-0.08-18.37,0.09-27.09c0.03-1.31,1.03-2.74,1.89-3.87
		c10.93-14.27,21.62-28.71,30.11-44.61c13.36-25.02,21.61-51.64,25.13-79.8c2.98-23.85,1.54-47.32-5.41-70.35
		c-5.9-19.56-15.12-37.41-28.29-53.11c-7.21-8.59-7.76-8.89-17.63-3.64c-30.09,16-57.83,35.28-79.52,61.88
		c-20.21,24.79-29.95,53.63-30.61,85.75c-0.31,15.18-1.05,30.51-3.59,45.44c-5.06,29.69-18.25,55.68-39.03,77.76
		c-19.98,21.23-43.83,37.26-68.52,52.27c-2.3,1.4-4.57,2.86-7.25,4.54c8.91,5.36,18,8.59,27.56,10.44c31.48,6.1,62.33,4.1,92.3-7.75
		c8.11-3.2,16.08-6.77,24.12-10.15c1.11-0.47,2.25-0.87,3.68-1.42c0,6.96,0,13.53,0,19.98c-28.45,17.07-59.34,24.8-92.41,24.05
		c-40.24-0.92-74.68-15.08-102.05-45.07c-15.55-17.04-25.2-37.29-31.2-59.37c-10.6-39.02-8.75-77.82,2.87-116.25
		c14.32-47.38,38.78-88.69,74.71-122.99c7.72-7.37,15.34-14.84,23.36-22.61c1.88,7.55,3.7,14.51,5.26,21.52
		c0.18,0.82-0.83,2.21-1.64,2.92c-27.17,23.7-48.08,52.2-64.54,84.11c-11.96,23.19-21.21,47.34-24.28,73.45
		c-4.15,35.27-1.17,69.54,15.57,101.59c6.53,12.5,15.15,23.47,26.08,32.48c0.85,0.7,2.84,1.06,3.71,0.56
		c23.19-13.27,46.36-26.77,66.11-44.9c30.17-27.69,47.02-61.95,48.68-103.39c0.67-16.68,1.62-33.46,4.15-49.93
		c3.66-23.76,14.81-44.5,29.2-63.61c14.37-19.08,31.99-34.59,51.89-47.55c10.13-6.6,20.59-12.7,30.89-19.03
		c1.15-0.71,2.26-1.47,3.97-2.59c-43.06-20.04-85.49-15.05-128.21,0.29c-1.71-6.43-3.34-12.54-5.17-19.44
		c7.63-2.49,14.95-5.24,22.46-7.24c18.97-5.07,38.18-8.85,57.94-8.56c39.16,0.58,72.12,13.86,95.5,46.77
		c12.07,16.99,20.02,35.83,25.9,55.68c11.46,38.7,11.92,77.61,2.72,116.82c-6.98,29.74-18.67,57.4-36.67,82.07
		c-7.97,10.93-17.53,20.7-26.41,30.96C407.45,547.5,406.42,548.19,404.79,549.59z"/>
	<path class="st0" d="M393.13,291.07c0.39,9.24,1.06,17.82,1.08,26.4c0.1,41.68,0.06,83.35,0.02,125.03
		c-0.05,46.17-0.18,92.34-0.23,138.51c-0.01,7.86-0.12,15.74,0.34,23.58c0.88,14.81,8.85,23.53,23.54,26.11
		c4.53,0.8,9.14,1.3,13.74,1.55c3.15,0.17,4.09,1.67,4.12,4.49c0.03,2.92-1.86,3.1-4.01,3.11c-23.21,0.12-46.43,0.34-69.64,0.36
		c-20.22,0.01-40.43-0.17-60.65-0.42c-1.62-0.02-3.91-0.78-4.67-1.97c-1.43-2.25,0.45-4.7,3.25-5.09
		c5.55-0.78,11.17-1.26,16.61-2.54c13.83-3.25,21.01-11.57,21.73-25.82c0.78-15.57,0.9-31.17,1.3-46.76
		c1.63-63.87,3.25-127.74,4.88-191.62c0.24-9.48,0.71-18.96,0.7-28.44c-0.02-13.24,6.43-23.04,16.81-30.01
		c8.76-5.88,18.45-10.4,27.75-15.48C390.5,291.66,391.38,291.57,393.13,291.07z"/>
	<path class="st0" d="M268.27,437.07c-2.29-6.93-4.69-13.84-6.87-20.81c-15.78-50.43-31.52-100.87-47.24-151.32
		c-2.34-7.49-4.42-15.06-6.76-22.55c-4.94-15.79-14.96-23.41-31.54-24.14c-0.85-0.04-1.7-0.18-2.76-0.3c0-1.91,0-3.7,0-5.77
		c36.4,0,72.66,0,109.14,0c0,1.84,0,3.52,0,4.19c-6.48,2.47-12.64,4.36-18.37,7.14c-5.55,2.7-6.79,5.74-5.14,11.7
		c3.7,13.33,7.74,26.56,11.69,39.81c6.08,20.42,12.23,40.82,18.26,61.26c0.35,1.19,0.41,2.85-0.15,3.87
		c-9.5,17.38-13.93,36.24-16.11,55.69c-1.53,13.63-2.48,27.32-3.69,40.98C268.58,436.91,268.43,436.99,268.27,437.07z"/>
</g>
</svg>
