<?xml version="1.0" encoding="utf-8"?>
<!-- Generator: Adobe Illustrator 25.1.0, SVG Export Plug-In . SVG Version: 6.00 Build 0)  -->
<svg version="1.1" id="Layer_1" xmlns="http://www.w3.org/2000/svg" xmlns:xlink="http://www.w3.org/1999/xlink" x="0px" y="0px"
	 viewBox="0 0 380.6 428" style="enable-background:new 0 0 380.6 428;" xml:space="preserve">
<style type="text/css">
	.st0{fill:#0A2342;}
</style>
<g>
	<path class="st0" d="M307.6,337.4c0-9.7-0.1-18.4,0.1-27.1c0-1.3,1-2.7,1.9-3.9c10.9-14.3,21.6-28.7,30.1-44.6
		c13.4-25,21.6-51.6,25.1-79.8c3-23.9,1.5-47.3-5.4-70.4c-5.9-19.6-15.1-37.4-28.3-53.1c-7.2-8.6-7.8-8.9-17.6-3.6
		c-30.1,16-57.8,35.3-79.5,61.9c-20.2,24.8-30,53.6-30.6,85.8c-0.3,15.2-1,30.5-3.6,45.4c-5.1,29.7-18.2,55.7-39,77.8
		c-20,21.2-43.8,37.3-68.5,52.3c-2.3,1.4-4.6,2.9-7.2,4.5c8.9,5.4,18,8.6,27.6,10.4c31.5,6.1,62.3,4.1,92.3-7.8
		c8.1-3.2,16.1-6.8,24.1-10.2c1.1-0.5,2.2-0.9,3.7-1.4c0,7,0,13.5,0,20c-28.5,17.1-59.3,24.8-92.4,24
		c-40.2-0.9-74.7-15.1-102.1-45.1C22.6,355.6,13,335.4,7,313.3c-10.6-39-8.8-77.8,2.9-116.2c14.3-47.4,38.8-88.7,74.7-123
		c7.7-7.4,15.3-14.8,23.4-22.6c1.9,7.5,3.7,14.5,5.3,21.5c0.2,0.8-0.8,2.2-1.6,2.9C84.4,99.6,63.5,128.1,47,160
		c-12,23.2-21.2,47.3-24.3,73.5C18.6,268.7,21.6,303,38.3,335c6.5,12.5,15.1,23.5,26.1,32.5c0.9,0.7,2.8,1.1,3.7,0.6
		c23.2-13.3,46.4-26.8,66.1-44.9c30.2-27.7,47-62,48.7-103.4c0.7-16.7,1.6-33.5,4.1-49.9c3.7-23.8,14.8-44.5,29.2-63.6
		c14.4-19.1,32-34.6,51.9-47.5c10.1-6.6,20.6-12.7,30.9-19c1.1-0.7,2.3-1.5,4-2.6c-43.1-20-85.5-15.1-128.2,0.3
		c-1.7-6.4-3.3-12.5-5.2-19.4c7.6-2.5,15-5.2,22.5-7.2c19-5.1,38.2-8.9,57.9-8.6c39.2,0.6,72.1,13.9,95.5,46.8
		c12.1,17,20,35.8,25.9,55.7c11.5,38.7,11.9,77.6,2.7,116.8c-7,29.7-18.7,57.4-36.7,82.1c-8,10.9-17.5,20.7-26.4,31
		C310.3,335.3,309.3,336,307.6,337.4z"/>
	<path class="st0" d="M296,78.9c0.4,9.2,1.1,17.8,1.1,26.4c0.1,41.7,0.1,83.4,0,125c0,46.2-0.2,92.3-0.2,138.5
		c0,7.9-0.1,15.7,0.3,23.6c0.9,14.8,8.9,23.5,23.5,26.1c4.5,0.8,9.1,1.3,13.7,1.5c3.1,0.2,4.1,1.7,4.1,4.5c0,2.9-1.9,3.1-4,3.1
		c-23.2,0.1-46.4,0.3-69.6,0.4c-20.2,0-40.4-0.2-60.6-0.4c-1.6,0-3.9-0.8-4.7-2c-1.4-2.2,0.5-4.7,3.2-5.1c5.5-0.8,11.2-1.3,16.6-2.5
		c13.8-3.2,21-11.6,21.7-25.8c0.8-15.6,0.9-31.2,1.3-46.8c1.6-63.9,3.2-127.7,4.9-191.6c0.2-9.5,0.7-19,0.7-28.4
		c0-13.2,6.4-23,16.8-30c8.8-5.9,18.5-10.4,27.8-15.5C293.3,79.5,294.2,79.4,296,78.9z"/>
	<path class="st0" d="M171.1,224.9c-2.3-6.9-4.7-13.8-6.9-20.8c-15.8-50.4-31.5-100.9-47.2-151.3c-2.3-7.5-4.4-15.1-6.8-22.6
		c-4.9-15.8-15-23.4-31.5-24.1c-0.9,0-1.7-0.2-2.8-0.3c0-1.9,0-3.7,0-5.8c36.4,0,72.7,0,109.1,0c0,1.8,0,3.5,0,4.2
		c-6.5,2.5-12.6,4.4-18.4,7.1c-5.5,2.7-6.8,5.7-5.1,11.7c3.7,13.3,7.7,26.6,11.7,39.8c6.1,20.4,12.2,40.8,18.3,61.3
		c0.4,1.2,0.4,2.9-0.1,3.9c-9.5,17.4-13.9,36.2-16.1,55.7c-1.5,13.6-2.5,27.3-3.7,41C171.4,224.7,171.3,224.8,171.1,224.9z"/>
</g>
</svg>
